<svg xmlns="http://www.w3.org/2000/svg" x="0px" y="0px"
width="100" height="100"
viewBox="0 0 50 50"
style=" fill:#fff;"><path d="M 18.1875 5.78125 C 16.722656 5.8125 15.085938 6.019531 13.375 6.4375 C 8.8125 7.550781 3.703125 10.320313 0.15625 16.0625 C -0.0976563 16.433594 -0.0703125 16.929688 0.222656 17.273438 C 0.511719 17.617188 1 17.722656 1.40625 17.53125 C 4.503906 16.207031 6.691406 17.207031 8.15625 18.96875 C 9.621094 20.730469 10.054688 23.304688 9.34375 24.71875 C 9.191406 25.03125 9.210938 25.398438 9.398438 25.691406 C 9.582031 25.980469 9.902344 26.160156 10.25 26.15625 C 12.433594 26.15625 13.652344 27.464844 14.125 29.15625 C 14.597656 30.847656 14.179688 32.800781 12.8125 33.84375 C 12.484375 34.105469 12.355469 34.542969 12.488281 34.941406 C 12.621094 35.339844 12.988281 35.613281 13.40625 35.625 C 15.054688 35.625 16.007813 35.949219 16.5 36.28125 C 16.992188 36.613281 17.117188 36.945313 17.1875 37.46875 C 17.257813 37.992188 17.167969 38.660156 17.03125 39.3125 C 16.894531 39.964844 16.691406 40.539063 16.71875 41.25 C 16.734375 41.6875 17.035156 42.066406 17.457031 42.179688 C 17.878906 42.292969 18.328125 42.121094 18.5625 41.75 C 19.554688 40.1875 20.984375 39.402344 22.125 39.375 C 23.265625 39.347656 24.183594 39.867188 24.625 41.46875 C 24.738281 41.910156 25.136719 42.21875 25.59375 42.21875 C 26.050781 42.21875 26.449219 41.910156 26.5625 41.46875 C 27.148438 39.3125 28.640625 37.71875 30.28125 37.0625 C 31.921875 36.40625 33.613281 36.609375 34.96875 38.0625 C 35.175781 38.273438 35.46875 38.382813 35.761719 38.359375 C 36.058594 38.335938 36.328125 38.179688 36.5 37.9375 C 37.15625 36.988281 39.339844 36.121094 41.5 36.34375 C 43.660156 36.566406 45.683594 37.636719 46.5 40.25 C 46.625 40.648438 46.984375 40.929688 47.40625 40.949219 C 47.824219 40.972656 48.210938 40.730469 48.375 40.34375 C 50.9375 34.101563 50.128906 28.335938 48.28125 24 C 47.359375 21.832031 46.179688 19.984375 45.03125 18.59375 C 43.882813 17.203125 42.808594 16.265625 41.84375 15.78125 C 41.558594 15.636719 41.21875 15.640625 40.933594 15.789063 C 40.648438 15.9375 40.453125 16.214844 40.40625 16.53125 C 39.910156 19.765625 38.695313 22.007813 37.15625 23.125 C 35.917969 24.023438 34.328125 24.078125 32.5 23.5 C 33.09375 22.597656 33.507813 21.601563 33.71875 20.65625 C 34.050781 19.175781 34.09375 17.875 34.09375 17.875 C 34.109375 17.492188 33.902344 17.132813 33.5625 16.953125 C 33.222656 16.773438 32.808594 16.800781 32.5 17.03125 C 32.5 17.03125 31.605469 17.664063 30.96875 18.09375 C 30.644531 17.808594 30.507813 17.613281 29.78125 17.25 C 29.050781 16.882813 28.796875 16.902344 28.375 16.8125 C 28.339844 16.042969 28.3125 14.9375 28.3125 14.9375 C 28.3125 14.554688 28.09375 14.203125 27.746094 14.035156 C 27.398438 13.867188 26.988281 13.914063 26.6875 14.15625 C 26.6875 14.15625 25.679688 14.972656 24.6875 16.125 C 24.054688 16.859375 23.496094 17.765625 23.125 18.78125 C 21.566406 17.65625 20.675781 16.371094 20.65625 14.84375 C 20.632813 12.941406 21.699219 10.609375 24 8.28125 C 24.226563 8.054688 24.328125 7.734375 24.277344 7.421875 C 24.230469 7.105469 24.03125 6.832031 23.75 6.6875 C 22.785156 6.203125 21.386719 5.898438 19.59375 5.8125 C 19.144531 5.789063 18.675781 5.769531 18.1875 5.78125 Z M 18.21875 7.78125 C 18.660156 7.773438 19.097656 7.792969 19.5 7.8125 C 20.503906 7.859375 20.960938 8.054688 21.59375 8.21875 C 19.804688 10.402344 18.628906 12.667969 18.65625 14.875 C 18.6875 17.53125 20.308594 19.910156 23.28125 21.40625 C 23.601563 21.5625 23.984375 21.539063 24.28125 21.335938 C 24.578125 21.136719 24.742188 20.792969 24.71875 20.4375 C 24.65625 19.65625 25.339844 18.394531 26.1875 17.40625 C 26.289063 17.289063 26.304688 17.328125 26.40625 17.21875 C 26.414063 17.367188 26.394531 17.480469 26.40625 17.59375 C 26.445313 18.066406 26.8125 18.441406 27.28125 18.5 C 27.28125 18.5 28.035156 18.609375 28.875 19.03125 C 29.714844 19.453125 30.25 20 30.25 20 C 30.578125 20.339844 31.097656 20.40625 31.5 20.15625 C 31.601563 20.097656 31.683594 20.019531 31.8125 19.9375 C 31.785156 20.082031 31.816406 20.070313 31.78125 20.21875 C 31.496094 21.488281 30.882813 22.800781 30.21875 23.21875 C 29.925781 23.414063 29.757813 23.75 29.777344 24.105469 C 29.792969 24.457031 30 24.773438 30.3125 24.9375 C 33.285156 26.429688 36.160156 26.308594 38.3125 24.75 C 40.097656 23.453125 41.191406 21.148438 41.875 18.40625 C 42.390625 18.816406 42.847656 19.085938 43.5 19.875 C 44.527344 21.121094 45.597656 22.804688 46.4375 24.78125 C 47.890625 28.199219 48.523438 32.519531 47.1875 37.3125 C 45.800781 35.503906 43.730469 34.550781 41.71875 34.34375 C 39.378906 34.101563 37.09375 34.710938 35.625 36.0625 C 33.808594 34.664063 31.535156 34.429688 29.5625 35.21875 C 27.875 35.894531 26.554688 37.355469 25.59375 39.125 C 24.699219 38.003906 23.429688 37.34375 22.09375 37.375 C 21.054688 37.398438 20.035156 37.808594 19.09375 38.4375 C 19.132813 38.023438 19.246094 37.671875 19.1875 37.21875 C 19.066406 36.292969 18.597656 35.28125 17.625 34.625 C 17.050781 34.238281 16.273438 34 15.40625 33.84375 C 16.339844 32.289063 16.546875 30.34375 16.0625 28.625 C 15.492188 26.597656 13.84375 24.871094 11.5 24.375 C 12.007813 22.171875 11.324219 19.617188 9.71875 17.6875 C 8.300781 15.984375 6.074219 14.835938 3.46875 15 C 6.53125 11.25 10.324219 9.234375 13.84375 8.375 C 15.402344 7.996094 16.890625 7.808594 18.21875 7.78125 Z"></path></svg>