<svg xmlns="http://www.w3.org/2000/svg" x="0px" y="0px"
width="100" height="100"
viewBox="0 0 172 172"
style=" fill:#000000;"><g fill="none" fill-rule="nonzero" stroke="none" stroke-width="1" stroke-linecap="butt" stroke-linejoin="miter" stroke-miterlimit="10" stroke-dasharray="" stroke-dashoffset="0" font-family="none" font-weight="none" font-size="none" text-anchor="none" style="mix-blend-mode: normal"><path d="M0,172v-172h172v172z" fill="none"></path><g fill="#ffffff"><path d="M105.8875,0c-17.22687,0.20156 -32.84125,7.16219 -44.3975,18.275c-1.23625,0.33594 -2.19031,1.33031 -2.4725,2.58c-10.62906,11.395 -17.29406,26.49875 -17.63,43.215c-0.45687,0.95406 -0.45687,2.05594 0,3.01c0,0.04031 0,0.06719 0,0.1075c0.38969,13.77344 5.03906,26.49875 12.685,36.8725l-51.17,51.2775c-3.78938,3.78938 -3.78938,9.97063 0,13.76c1.89469,1.90813 4.38063,2.9025 6.88,2.9025c2.49938,0 4.98531,-1.00781 6.88,-2.9025l51.2775,-51.17c10.52156,7.74 23.42156,12.40281 37.41,12.685c0.95406,0.45688 2.05594,0.45688 3.01,0c0.04031,0 0.06719,0 0.1075,0c17.06563,-0.47031 32.49188,-7.45781 43.86,-18.5975c0.24188,-0.18812 0.45688,-0.40312 0.645,-0.645c0.04031,-0.04031 0.06719,-0.06719 0.1075,-0.1075c0.16125,-0.16125 0.30906,-0.34937 0.43,-0.5375c11.08594,-11.46219 18.04656,-26.95562 18.3825,-44.075c0.45688,-0.95406 0.45688,-2.05594 0,-3.01c0,-0.04031 0,-0.06719 0,-0.1075c-0.47031,-17.05219 -7.45781,-32.47844 -18.5975,-43.86c-0.02687,-0.06719 -0.06719,-0.14781 -0.1075,-0.215c-0.1075,-0.1075 -0.215,-0.215 -0.3225,-0.3225c-0.215,-0.25531 -0.47031,-0.47031 -0.7525,-0.645c-11.52937,-11.18 -27.15719,-18.10031 -44.3975,-18.3825c-0.06719,-0.04031 -0.14781,-0.08062 -0.215,-0.1075c-0.14781,0 -0.28219,0 -0.43,0c-0.14781,-0.01344 -0.28219,-0.01344 -0.43,0c-0.1075,0 -0.215,0 -0.3225,0c-0.1075,0 -0.215,0 -0.3225,0c-0.04031,0 -0.06719,0 -0.1075,0zM105.2425,6.9875c1.42438,1.76031 3.99094,5.42875 6.1275,10.535c-0.41656,-0.17469 -0.81969,-0.3225 -1.29,-0.3225c-1.89469,0 -3.44,1.54531 -3.44,3.44c0,1.89469 1.54531,3.44 3.44,3.44c1.34375,0 2.44563,-0.81969 3.01,-1.935c2.58,8.80156 3.01,20.43844 -4.8375,34.2925c-4.77031,-17.28062 -14.86187,-27.10344 -24.295,-32.25c-4.34031,-2.37844 -8.51937,-3.74906 -12.04,-4.6225c-0.1075,-0.30906 -0.24187,-0.60469 -0.43,-0.86c2.48594,-1.86781 5.17344,-3.58781 7.955,-5.0525c0.88688,-0.09406 1.70656,-0.43 2.2575,-1.075c4.945,-2.33812 10.30656,-4.07156 15.91,-4.945c-0.77937,0.63156 -1.29,1.59906 -1.29,2.6875c0,1.89469 1.54531,3.44 3.44,3.44c1.89469,0 3.44,-1.54531 3.44,-3.44c0,-1.3975 -0.86,-2.58 -2.0425,-3.1175c1.35719,-0.12094 2.70094,-0.18812 4.085,-0.215zM113.8425,7.4175c12.73875,1.55875 24.16063,7.10844 33.0025,15.48c0,0.06719 0,0.04031 0,0.1075c-0.25531,2.82188 -1.22281,9.32563 -5.0525,16.34c-4.39406,8.04906 -12.29531,16.59531 -27.6275,20.855c8.85531,-15.61437 8.51938,-29.65656 5.4825,-39.99c-1.55875,-5.29437 -3.77594,-9.5675 -5.805,-12.7925zM89.44,17.2c-1.89469,0 -3.44,1.54531 -3.44,3.44c0,1.89469 1.54531,3.44 3.44,3.44c1.89469,0 3.44,-1.54531 3.44,-3.44c0,-1.89469 -1.54531,-3.44 -3.44,-3.44zM64.1775,25.155c2.71438,0.22844 9.27188,1.12875 16.4475,5.0525c8.08938,4.42094 16.72969,12.34906 20.9625,27.8425c-11.15312,-6.38281 -21.52687,-8.17 -30.315,-7.525c-3.5475,0.25531 -6.81281,0.95406 -9.7825,1.8275c-5.29437,1.55875 -9.5675,3.77594 -12.7925,5.805c1.55875,-12.72531 7.13531,-24.1875 15.48,-33.0025zM99.76,27.52c-1.89469,0 -3.44,1.54531 -3.44,3.44c0,1.89469 1.54531,3.44 3.44,3.44c1.89469,0 3.44,-1.54531 3.44,-3.44c0,-1.89469 -1.54531,-3.44 -3.44,-3.44zM152.7575,29.455c4.35375,5.59 7.69969,11.98625 9.7825,18.92c-0.29562,-0.08062 -0.5375,-0.215 -0.86,-0.215c-1.89469,0 -3.44,1.54531 -3.44,3.44c0,1.89469 1.54531,3.44 3.44,3.44c0.86,0 1.65281,-0.33594 2.2575,-0.86c0.60469,3.17125 0.99438,6.45 1.075,9.7825c-2.24406,1.8275 -7.59219,5.61688 -15.1575,7.8475c-1.74687,0.51063 -3.62812,0.88688 -5.59,1.1825c0.06719,-0.25531 0.215,-0.47031 0.215,-0.7525c0,-1.89469 -1.54531,-3.44 -3.44,-3.44c-1.89469,0 -3.44,1.54531 -3.44,3.44c0,0.47031 0.14781,0.87344 0.3225,1.29c-4.46125,-0.05375 -9.33906,-1.02125 -14.62,-3.01c-0.60469,-1.00781 -1.65281,-1.72 -2.9025,-1.72c-0.3225,0 -0.56437,0.13438 -0.86,0.215c-1.31687,-0.61812 -2.60687,-1.26312 -3.9775,-2.0425c4.4075,-1.22281 8.34469,-2.80844 11.825,-4.6225c0.22844,1.67969 1.58563,3.01 3.3325,3.01c1.89469,0 3.44,-1.54531 3.44,-3.44c0,-1.16906 -0.61812,-2.17687 -1.505,-2.795c2.28438,-1.55875 4.3,-3.21156 6.1275,-4.945c0.60469,0.52406 1.3975,0.86 2.2575,0.86c1.89469,0 3.44,-1.54531 3.44,-3.44c0,-0.95406 -0.34937,-1.85437 -0.9675,-2.4725c1.69313,-2.15 3.13094,-4.3 4.3,-6.45c0.12094,-0.22844 0.20156,-0.43 0.3225,-0.645c0.36281,1.505 1.59906,2.6875 3.225,2.6875c1.89469,0 3.44,-1.54531 3.44,-3.44c0,-1.89469 -1.54531,-3.44 -3.44,-3.44c-0.56437,0 -1.03469,0.18813 -1.505,0.43c1.35719,-3.19812 2.32469,-6.24844 2.9025,-8.815zM110.08,37.84c-1.89469,0 -3.44,1.54531 -3.44,3.44c0,1.89469 1.54531,3.44 3.44,3.44c1.89469,0 3.44,-1.54531 3.44,-3.44c0,-1.89469 -1.54531,-3.44 -3.44,-3.44zM72.885,57.19c1.14219,-0.06719 2.33813,-0.04031 3.5475,0c3.41313,0.13438 7.095,0.80625 10.965,2.0425c-0.83312,0.63156 -1.3975,1.57219 -1.3975,2.6875c0,1.89469 1.54531,3.44 3.44,3.44c1.89469,0 3.44,-1.54531 3.44,-3.44c0,-0.28219 -0.14781,-0.49719 -0.215,-0.7525c1.66625,0.73906 3.31906,1.59906 5.0525,2.58c-6.14094,1.69313 -11.31437,4.11188 -15.695,6.88c-0.59125,-1.04812 -1.6125,-1.8275 -2.9025,-1.8275c-1.89469,0 -3.44,1.54531 -3.44,3.44c0,0.91375 0.38969,1.74688 0.9675,2.365c-2.06937,1.73344 -3.9775,3.50719 -5.59,5.375c-0.60469,-0.52406 -1.3975,-0.86 -2.2575,-0.86c-1.89469,0 -3.44,1.54531 -3.44,3.44c0,1.24969 0.71219,2.29781 1.72,2.9025c-0.55094,0.87344 -1.14219,1.72 -1.6125,2.58c-2.64719,4.85094 -4.11187,9.48688 -4.945,13.2225c-1.35719,-1.74687 -2.60687,-3.58781 -3.7625,-5.4825c0.51063,0.30906 1.075,0.5375 1.72,0.5375c1.89469,0 3.44,-1.54531 3.44,-3.44c0,-1.89469 -1.54531,-3.44 -3.44,-3.44c-1.86781,0 -3.38625,1.47813 -3.44,3.3325c-1.51844,-2.84875 -2.72781,-5.805 -3.7625,-8.9225c0.17469,-0.41656 0.3225,-0.81969 0.3225,-1.29c0,-1.16906 -0.61812,-2.17687 -1.505,-2.795c-1.04812,-4.17906 -1.72,-8.50594 -1.8275,-13.0075c2.24406,-1.8275 7.59219,-5.61687 15.1575,-7.8475c2.87563,-0.84656 6.02,-1.53187 9.46,-1.72zM68.8,58.48c-1.89469,0 -3.44,1.54531 -3.44,3.44c0,1.89469 1.54531,3.44 3.44,3.44c1.89469,0 3.44,-1.54531 3.44,-3.44c0,-1.89469 -1.54531,-3.44 -3.44,-3.44zM151.36,58.48c-1.89469,0 -3.44,1.54531 -3.44,3.44c0,1.89469 1.54531,3.44 3.44,3.44c1.89469,0 3.44,-1.54531 3.44,-3.44c0,-1.89469 -1.54531,-3.44 -3.44,-3.44zM58.48,68.8c-1.89469,0 -3.44,1.54531 -3.44,3.44c0,1.89469 1.54531,3.44 3.44,3.44c1.89469,0 3.44,-1.54531 3.44,-3.44c0,-1.89469 -1.54531,-3.44 -3.44,-3.44zM99.115,70.52c-8.85531,15.61438 -8.51937,29.65656 -5.4825,39.99c1.55875,5.29438 3.77594,9.5675 5.805,12.7925c-10.97844,-1.34375 -21.01625,-5.61687 -29.24,-12.1475c-0.215,-0.25531 -0.47031,-0.47031 -0.7525,-0.645c-1.03469,-0.86 -2.02906,-1.76031 -3.01,-2.6875c-0.01344,-0.01344 0.01344,-0.09406 0,-0.1075c0.25531,-2.82187 1.22281,-9.32562 5.0525,-16.34c4.39406,-8.04906 12.29531,-16.59531 27.6275,-20.855zM164.5825,72.5625c-1.55875,12.75219 -7.21594,24.17406 -15.5875,33.0025c-2.82187,-0.25531 -9.32562,-1.22281 -16.34,-5.0525c-0.215,-0.12094 -0.43,-0.30906 -0.645,-0.43c-0.02687,-0.01344 -0.08062,0.01344 -0.1075,0c-7.8475,-4.47469 -15.99062,-12.3625 -20.1025,-27.305c15.61438,8.85531 29.67,8.62688 39.99,5.59c5.29438,-1.55875 9.5675,-3.77594 12.7925,-5.805zM105.0275,74.175c0.65844,2.37844 1.30344,4.66281 2.15,6.7725c-0.28219,0.49719 -0.5375,1.00781 -0.5375,1.6125c0,1.65281 1.23625,2.9025 2.795,3.225c5.30781,10.36031 12.77906,16.86406 19.8875,20.7475c3.5475,1.935 6.93375,3.19813 9.9975,4.085c-1.00781,0.60469 -1.72,1.65281 -1.72,2.9025c0,0.44344 0.17469,0.79281 0.3225,1.1825c-7.21594,4.55531 -15.60094,7.67281 -24.51,8.7075c-0.22844,-1.67969 -1.58562,-3.01 -3.3325,-3.01c-1.37062,0 -2.45906,0.87344 -3.01,2.0425c-1.24969,-1.66625 -2.75469,-4.16562 -4.3,-7.4175c0.24188,-0.47031 0.43,-0.94062 0.43,-1.505c0,-1.54531 -1.075,-2.795 -2.4725,-3.225c-0.20156,-0.57781 -0.36281,-1.11531 -0.5375,-1.72c-1.08844,-3.69531 -1.84094,-7.91469 -1.72,-12.5775c0.41656,0.17469 0.81969,0.3225 1.29,0.3225c1.89469,0 3.44,-1.54531 3.44,-3.44c0,-1.89469 -1.54531,-3.44 -3.44,-3.44c-0.16125,0 -0.28219,0.08063 -0.43,0.1075c0.88688,-4.75687 2.58,-9.87656 5.6975,-15.3725zM110.08,99.76c-1.89469,0 -3.44,1.54531 -3.44,3.44c0,1.89469 1.54531,3.44 3.44,3.44c1.89469,0 3.44,-1.54531 3.44,-3.44c0,-1.89469 -1.54531,-3.44 -3.44,-3.44zM58.48,109.435c0.49719,0.55094 0.98094,1.08844 1.505,1.6125c0.25531,0.38969 0.57781,0.71219 0.9675,0.9675c0.52406,0.51063 1.075,1.00781 1.6125,1.505l-50.74,50.74c-0.59125,0.59125 -1.29,0.86 -2.0425,0.86c-0.7525,0 -1.46469,-0.28219 -2.0425,-0.86c-1.16906,-1.16906 -1.16906,-2.91594 0,-4.085zM120.4,110.08c-1.89469,0 -3.44,1.54531 -3.44,3.44c0,1.89469 1.54531,3.44 3.44,3.44c1.89469,0 3.44,-1.54531 3.44,-3.44c0,-1.89469 -1.54531,-3.44 -3.44,-3.44z"></path></g></g></svg>