<svg xmlns="http://www.w3.org/2000/svg" x="0px" y="0px"
width="100" height="100"
viewBox="0 0 172 172"
style=" fill:#000000;"><g fill="none" fill-rule="nonzero" stroke="none" stroke-width="1" stroke-linecap="butt" stroke-linejoin="miter" stroke-miterlimit="10" stroke-dasharray="" stroke-dashoffset="0" font-family="none" font-weight="none" font-size="none" text-anchor="none" style="mix-blend-mode: normal"><path d="M0,172v-172h172v172z" fill="none"></path><g fill="#ffffff"><path d="M64.715,0c-12.80594,0 -24.30844,3.31906 -32.68,9.9975c-8.37156,6.67844 -13.4375,16.81031 -13.4375,29.24c0,14.33781 7.78031,20.16969 11.825,22.6825c-0.61812,0.95406 -1.27656,1.73344 -1.935,3.225c-1.935,4.35375 -3.7625,11.13969 -3.7625,21.1775c0,33.55344 2.75469,65.09125 3.44,74.605c0.20156,2.70094 1.00781,4.945 2.15,6.7725c1.14219,1.8275 2.78156,3.655 5.4825,3.655c1.22281,0 3.62813,-0.29562 5.375,-2.0425c1.73344,-1.73344 2.40531,-4.12531 2.795,-7.525c0,-0.04031 0,-0.06719 0,-0.1075c1.03469,-8.12969 2.31125,-18.90656 3.5475,-28.81c1.23625,-9.94375 2.58,-19.16187 3.655,-23.3275c1.15563,-4.47469 2.62031,-8.41187 4.1925,-10.8575c1.57219,-2.44562 2.63375,-3.10406 4.3,-3.01c2.23063,0.12094 3.64156,0.69875 5.375,3.7625c1.73344,3.03688 3.25188,8.64031 4.085,17.0925c0,0.04031 0,0.06719 0,0.1075c1.00781,12.51031 1.3975,32.34406 1.075,38.3775c-0.17469,6.3425 0.43,10.15875 2.2575,12.9c1.8275,2.74125 5.13313,3.44 6.665,3.44c1.41094,0 3.01,-0.65844 4.085,-1.6125c1.075,-0.95406 1.63938,-2.01562 2.15,-3.225c1.00781,-2.41875 1.66625,-5.44219 2.365,-9.46h-0.1075c3.25188,-17.77781 5.97969,-30.59719 8.4925,-38.5925c1.26313,-4.00437 2.52625,-6.75906 3.5475,-8.2775c1.02125,-1.51844 1.38406,-1.505 1.505,-1.505c0.51063,0 0.7525,0.05375 1.72,1.72c0.9675,1.66625 2.0425,4.75688 2.9025,9.03c1.73344,8.54625 2.92938,21.78219 4.3,39.13c0.37625,4.74344 1.54531,8.03563 3.87,10.2125c2.32469,2.17688 5.32125,2.58 7.525,2.58c2.19031,0 4.44781,-1.42437 5.4825,-3.1175c1.03469,-1.69312 1.30344,-3.45344 1.505,-5.2675c0.38969,-3.60125 0.22844,-7.75344 0.5375,-11.9325c0,-0.04031 0,-0.06719 0,-0.1075c1.65281,-16.70281 1.89469,-45.28437 1.935,-48.4825c2.37844,-0.63156 5.61688,-1.77375 9.3525,-4.8375c6.00656,-4.93156 11.7175,-14.27062 11.7175,-30.2075c0,-14.44531 -2.0425,-26.3375 -2.0425,-26.3375c-0.20156,-1.30344 -1.12875,-2.37844 -2.37844,-2.76812c-1.26313,-0.38969 -2.63375,-0.02688 -3.53406,0.94062l-12.9,13.2225c-1.72,-0.44344 -5.45562,-1.505 -10.105,-1.505c-4.3,0 -6.7725,0.87344 -8.6,1.3975l-9.1375,-13.975c-0.5375,-0.84656 -1.41094,-1.41094 -2.40531,-1.55875c-0.99437,-0.14781 -2.00219,0.14781 -2.75469,0.80625c0,0 -2.52625,2.40531 -4.73,7.095c-0.36281,0.77938 -0.61812,2.08281 -0.9675,3.01c-1.62594,-2.59344 -2.10969,-3.62812 -4.8375,-7.31c-2.52625,-3.39969 -5.30781,-6.85312 -8.17,-9.5675c-2.86219,-2.71437 -5.67062,-5.0525 -9.5675,-5.0525c-7.31,0 -14.0825,4.64938 -19.565,9.675c-2.74125,2.51281 -5.10625,5.16 -6.9875,7.6325c-0.86,1.12875 -1.19594,2.09625 -1.8275,3.1175c-0.33594,-0.26875 -0.63156,-0.40312 -0.9675,-0.7525c-1.41094,-1.46469 -2.6875,-3.60125 -2.6875,-6.9875c0,-6.50375 2.91594,-11.62344 7.525,-15.3725c4.60906,-3.74906 10.92469,-5.9125 17.2,-5.9125c11.73094,0 15.695,4.36719 20.3175,10.6425c1.63938,2.17688 3.61469,3.69531 5.9125,4.1925c2.29781,0.49719 4.75688,-0.215 6.3425,-1.72c3.17125,-3.02344 3.57438,-8.10281 1.1825,-12.9c-1.12875,-2.24406 -3.93719,-6.1275 -9.1375,-9.9975c-5.20031,-3.87 -12.71187,-7.4175 -22.4675,-7.4175zM64.715,6.88c8.12969,0 14.12281,2.84875 18.3825,6.02c4.25969,3.17125 6.83969,7.01438 7.095,7.525c1.38406,2.78156 0.48375,4.58219 0.215,4.8375c-0.13437,0.12094 0.09406,0.14781 -0.1075,0.1075c-0.18812,-0.04031 -0.92719,-0.45687 -1.8275,-1.6125c-0.01344,-0.01344 -0.09406,0.01344 -0.1075,0c-5.01219,-6.78594 -12.12062,-13.4375 -25.8,-13.4375c-7.83406,0 -15.53375,2.67406 -21.5,7.525c-5.96625,4.85094 -10.105,11.99969 -10.105,20.64c0,5.21375 2.13656,9.23156 4.515,11.7175c1.1825,1.23625 2.4725,2.15 3.5475,2.795c1.075,0.645 1.80063,1.03469 2.795,1.29c1.77375,0.41656 3.56094,-0.61812 4.085,-2.365c0.17469,-0.55094 1.29,-2.51281 2.9025,-4.6225c1.6125,-2.10969 3.70875,-4.55531 6.1275,-6.7725c4.8375,-4.43437 10.89781,-7.8475 14.9425,-7.8475c0.22844,0 2.365,0.98094 4.73,3.225c2.365,2.24406 5.03906,5.38844 7.4175,8.6c4.48813,6.06031 7.64594,11.55625 8.0625,12.255c-0.51062,3.1175 -0.9675,6.28875 -0.9675,10.32c0,21.45969 13.93469,33.23094 24.6175,35.69c1.23625,0.40313 2.59344,0.09406 3.50719,-0.81969c0.91375,-0.91375 1.24969,-2.27094 0.84656,-3.50719c-0.40312,-1.23625 -1.46469,-2.13656 -2.74125,-2.33813c-7.21594,-1.66625 -19.35,-10.57531 -19.35,-29.025c0,-4.46125 0.45688,-8.08937 1.075,-11.18c0.69875,-3.50719 1.65281,-6.28875 2.58,-8.2775c0.44344,-0.94062 0.37625,-0.55094 0.7525,-1.1825l7.525,11.5025c0.83313,1.27656 2.41875,1.84094 3.87,1.3975c0,0 5.25406,-1.505 9.245,-1.505c3.99094,0 10.535,1.6125 10.535,1.6125c1.20938,0.30906 2.4725,-0.06719 3.3325,-0.9675l8.815,-9.03c0.59125,4.13875 1.3975,8.12969 1.3975,17.9525c0,14.33781 -4.66281,21.16406 -9.1375,24.8325c-4.47469,3.66844 -8.7075,4.085 -8.7075,4.085c-1.77375,0.16125 -3.13094,1.65281 -3.1175,3.44c0,0 -0.36281,33.72813 -2.0425,50.525c0,0.04031 0,0.06719 0,0.1075c-0.36281,4.73 -0.24187,9.09719 -0.5375,11.825c-0.13437,1.1825 -0.30906,1.86781 -0.43,2.15c-1.20937,-0.04031 -2.01562,-0.215 -2.4725,-0.645c-0.52406,-0.48375 -1.41094,-1.94844 -1.72,-5.805c-1.38406,-17.38812 -2.52625,-30.62406 -4.4075,-39.8825c-0.94062,-4.63594 -2.01562,-8.23719 -3.655,-11.0725c-1.63937,-2.83531 -4.46125,-5.16 -7.74,-5.16c-2.98312,0 -5.50937,2.01563 -7.2025,4.515c-1.69312,2.49938 -3.05031,5.76469 -4.4075,10.105c-2.72781,8.66719 -5.32125,21.52688 -8.6,39.4525c-0.04031,0.04031 -0.06719,0.06719 -0.1075,0.1075c-0.67187,3.89688 -1.29,6.57094 -1.8275,7.8475c-0.18812,0.45688 -0.26875,0.45688 -0.3225,0.5375c-0.1075,0.01344 -0.30906,0.13438 -0.5375,-0.215c-0.40312,-0.60469 -1.20937,-3.26531 -1.075,-8.815c0,-0.01344 0,-0.09406 0,-0.1075c0.36281,-7.06812 -0.02687,-26.32406 -1.075,-39.2375c0,-0.04031 0,-0.06719 0,-0.1075c-0.88687,-9.01656 -2.37844,-15.265 -4.945,-19.78c-2.53969,-4.47469 -6.69187,-7.05469 -10.965,-7.31c-0.02687,0 -0.08062,0 -0.1075,0c-4.47469,-0.20156 -8.14312,2.58 -10.4275,6.1275c-2.29781,3.57438 -3.80281,8.08938 -5.0525,12.9c-1.33031,5.11969 -2.62031,14.17656 -3.87,24.1875c-1.24969,10.01094 -2.41875,20.88188 -3.44,28.9175c-0.28219,2.56656 -0.91375,3.37281 -0.9675,3.44c-0.06719,-0.06719 -0.01344,-0.06719 -0.1075,-0.215c-0.41656,-0.65844 -0.94062,-2.00219 -1.075,-3.7625c-0.69875,-9.75562 -3.44,-40.89031 -3.44,-74.0675c0,-9.21812 1.72,-14.99625 3.225,-18.3825c0.7525,-1.69312 1.45125,-2.795 1.935,-3.44c0.48375,-0.645 0.5375,-0.645 0.5375,-0.645c0.91375,-0.76594 1.37063,-1.96187 1.19594,-3.14437c-0.17469,-1.1825 -0.95406,-2.19031 -2.05594,-2.66063c0,0 -10.965,-4.11187 -10.965,-18.8125c0,-10.61562 4.01781,-18.40937 10.8575,-23.865c6.83969,-5.45562 16.77,-8.4925 28.38,-8.4925zM140.7175,69.1225l-4.515,2.0425l-2.365,7.955l-1.3975,-6.5575l-6.88,3.1175c0,0 5.16,4.79719 10.32,3.7625c5.16,-1.03469 4.8375,-8.6 4.8375,-10.32zM107.285,69.875c-0.34937,1.72 -0.645,8.53281 4.515,9.5675c5.16,1.03469 10.34688,-3.46687 9.9975,-3.1175l-5.4825,-2.365l-2.15,4.8375l-2.365,-6.88z"></path></g></g></svg>