<svg xmlns="http://www.w3.org/2000/svg" x="0px" y="0px"
width="100" height="100"
viewBox="0 0 172 172"
style=" fill:#000000;"><g fill="none" fill-rule="nonzero" stroke="none" stroke-width="1" stroke-linecap="butt" stroke-linejoin="miter" stroke-miterlimit="10" stroke-dasharray="" stroke-dashoffset="0" font-family="none" font-weight="none" font-size="none" text-anchor="none" style="mix-blend-mode: normal"><path d="M0,172v-172h172v172z" fill="none"></path><g fill="#ffffff"><path d="M65.40031,0c-6.69131,8.4855 -1.6378,14.73774 1.62594,17.54266c-2.94127,4.34748 -5.11297,9.80423 -5.11297,16.35344c0,2.46871 0.76066,4.75152 1.55875,6.92703c0.23124,0.63035 0.41504,0.93741 0.65172,1.51172c-2.26771,0.62405 -4.5472,1.10735 -6.71203,2.0425c-3.48494,1.50541 -6.54623,3.11227 -8.64031,5.65047c-0.00224,0 -0.00448,0 -0.00672,0c-9.77425,11.85697 -16.01647,36.04895 -20.62656,58.49344c-3.59212,17.48844 -5.50876,31.22657 -6.52391,38.9486l-0.18812,-0.18813l-0.7525,7.01438c-0.0007,0.00576 -0.00603,0.05483 -0.00672,0.06047c-0.00246,0.02237 -0.0047,0.04477 -0.00672,0.06719v0.01344c-0.01304,0.12198 -0.01962,0.19947 -0.02688,0.26875c-0.00092,0.0086 -0.00589,0.02534 -0.00672,0.0336c-0.00375,0.03584 -0.00334,0.06552 -0.00672,0.10078c-0.00169,0.01754 -0.00914,0.03027 -0.01344,0.08734c-0.00215,0.02855 -0.00672,0.22114 -0.00672,0.22172c-0.00003,0.00017 0.04031,0.57781 0.04031,0.57781c0,0 0.09006,-0.01321 0.13437,-0.02015c0.13597,0.48529 0.37679,0.93482 0.70547,1.31687c0.22925,0.26543 0.31092,0.35456 0.74578,0.79281c0.43486,0.43825 1.05892,1.03889 1.87453,1.74688c1.63122,1.41597 4.02505,3.26477 7.17563,5.10625c6.3013,3.68296 15.66995,7.33015 27.8425,7.33015c1.74008,0.00091 3.20745,-1.29636 3.41985,-3.02344c0.83055,-6.80176 1.72881,-13.11435 2.6539,-19.20891c4.73927,-0.90457 11.73476,-1.84765 20.80797,-1.84765c9.07321,0 16.0687,0.94308 20.80797,1.84765c0.92515,6.09205 1.82368,12.40339 2.6539,19.20219c0.21239,1.72707 1.67976,3.02435 3.41985,3.02344c24.41479,0 37.63844,-14.96938 37.63844,-14.96938c0.62885,-0.72263 0.9283,-1.67453 0.82641,-2.62703c0,0 -2.16989,-20.20976 -6.6986,-43.24187c-4.5287,-23.03211 -10.92336,-48.6888 -21.43953,-61.15406c-2.09959,-2.48861 -5.15569,-4.10294 -8.63359,-5.61015c-2.16064,-0.93636 -4.43394,-1.42806 -6.6986,-2.05594c0.23609,-0.57285 0.42106,-0.8764 0.65172,-1.505c0.79818,-2.17527 1.55875,-4.46429 1.55875,-6.93375c0,-6.52459 -2.16179,-11.96014 -5.08609,-16.29969c3.34464,-2.85973 8.66116,-9.27923 1.65281,-17.55609c0,0 -0.01143,8.64881 -7.51828,10.95156c-3.98567,-3.55986 -7.98461,-5.81627 -10.17219,-6.87328c-1.86155,-0.89963 -4.05767,-0.89963 -5.91922,0c-2.18137,1.05324 -6.16017,3.29734 -10.13188,6.83297c-7.50062,-2.30564 -7.51156,-10.95156 -7.51156,-10.95156zM86,10.34688c2.12927,1.03104 6.56563,3.49467 10.33344,7.41078c3.78054,3.92934 6.85985,9.11676 6.85985,16.13844c0,0.69534 -0.46218,2.72712 -1.13547,4.56203c-0.67329,1.8349 -1.50023,3.61846 -1.92828,4.46125c-0.49443,0.97377 -0.49767,2.12434 -0.00874,3.10088c0.48893,0.97654 1.41208,1.66329 2.48795,1.85084c2.76354,0.47942 6.2493,1.54581 9.22485,2.83531c2.97554,1.28951 5.49622,3.01127 6.10734,3.73563c8.21118,9.73306 15.48624,35.34505 19.94797,58.03656c4.2762,21.74789 6.15797,39.32112 6.32906,40.88359c-1.29449,1.41065 -10.34036,10.28531 -28.47406,11.34797c-4.81994,-37.7072 -11.25753,-64.78049 -16.64906,-82.05609c-5.57902,-17.87636 -10.09156,-26.06203 -10.09156,-26.06203c-0.56218,-1.01108 -1.59445,-1.67235 -2.74797,-1.76031c1.39178,-1.10768 19.28303,-15.81404 6.67172,-30.75172l-0.02016,0.00672v-0.00672l-6.86656,3.44l-6.88,-3.44v0.00672l-0.01344,-0.00672v0.02688c-12.30675,14.87065 5.23071,29.60026 6.60453,30.71812c-1.16467,0.08059 -2.2092,0.74576 -2.77484,1.76703c0,0 -4.50442,8.18552 -10.07813,26.06203c-5.38638,17.27568 -11.82277,44.34784 -16.64234,82.05609c-9.22597,-0.55145 -16.60179,-3.11952 -21.50672,-5.9864c-2.72753,-1.59422 -4.78059,-3.18547 -6.13422,-4.36047c-0.38071,-0.33047 -0.57727,-0.53113 -0.84656,-0.7861c0.48695,-3.96862 2.73403,-22.34211 7.11516,-43.67187c4.54288,-22.11727 11.61492,-46.30104 19.19547,-55.49688c0.58224,-0.70573 3.09166,-2.43018 6.06703,-3.71547c2.97538,-1.28529 6.46798,-2.34487 9.23828,-2.82187c1.0771,-0.18575 2.00206,-0.87177 2.49246,-1.84858c0.49039,-0.97681 0.48797,-2.12841 -0.00652,-3.10315c-0.42769,-0.84205 -1.25492,-2.63244 -1.92828,-4.46797c-0.67337,-1.83552 -1.13547,-3.86266 -1.13547,-4.55531c0,-7.02168 3.07897,-12.20915 6.85985,-16.13844c3.76654,-3.91438 8.20221,-6.37926 10.33344,-7.41078z"></path></g></g></svg>