<svg xmlns="http://www.w3.org/2000/svg" x="0px" y="0px"
width="100" height="100"
viewBox="0 0 172 172"
style=" fill:#fff;"><g fill="none" fill-rule="nonzero" stroke="none" stroke-width="1" stroke-linecap="butt" stroke-linejoin="miter" stroke-miterlimit="10" stroke-dasharray="" stroke-dashoffset="0" font-family="none" font-weight="none" font-size="none" text-anchor="none" style="mix-blend-mode: normal"><path d="M0,172v-172h172v172z" fill="none"></path><g fill="#ffffff"><path d="M86,0c-12.73875,0 -22.07781,3.35938 -28.81,8.6c-6.73219,5.24063 -10.76344,12.16094 -13.6525,19.0275c-2.88906,6.86656 -4.70312,13.81375 -6.7725,19.0275c-2.06937,5.21375 -4.23281,8.23719 -7.095,9.245c-17.83156,6.31563 -29.67,21.31188 -29.67,41.6025c0,1.81406 1.41094,3.3325 3.225,3.44c9.15094,0.48375 14.21688,2.67406 17.2,5.375c2.98313,2.70094 4.27313,6.15438 4.945,10.2125c0.67188,4.05813 0.645,8.47906 1.3975,12.685c0.37625,2.09625 0.92719,4.21938 2.15,6.1275c1.22281,1.90813 3.15781,3.49375 5.59,4.3c7.22938,2.40531 12.255,3.95063 15.695,5.9125c3.41313,1.94844 5.60344,4.28656 8.0625,9.46c0.01344,0.02688 -0.01344,0.08063 0,0.1075c2.0425,4.32688 4.85094,8.73438 9.3525,11.9325c4.52844,3.21156 10.70969,5.0525 19.0275,4.945c13.51813,-0.17469 20.46531,-6.46344 24.6175,-12.5775c2.06938,-3.05031 3.655,-6.00656 5.2675,-8.17c1.6125,-2.16344 3.06375,-3.49375 5.375,-4.1925c8.80156,-2.64719 13.975,-7.10844 16.8775,-12.04c2.9025,-4.93156 3.60125,-10.03781 4.6225,-14.0825c1.02125,-4.04469 2.10969,-6.7725 5.16,-8.815c3.05031,-2.0425 8.88219,-3.48031 19.78,-2.9025c0.95406,0.05375 1.88125,-0.28219 2.56656,-0.92719c0.69875,-0.65844 1.08844,-1.55875 1.08844,-2.51281c0,-9.48687 0.09406,-19.995 -3.7625,-29.3475c-3.85656,-9.3525 -12.12062,-17.26719 -26.9825,-20.64c-1.075,-0.24187 -1.96187,-0.80625 -3.01,-2.15c-1.04812,-1.34375 -2.09625,-3.35937 -3.1175,-5.9125c-2.0425,-5.10625 -3.89687,-12.12062 -6.88,-19.135c-2.98312,-7.01437 -7.16219,-14.23031 -13.8675,-19.6725c-6.70531,-5.44219 -15.91,-8.9225 -28.38,-8.9225zM86,6.88c11.20688,0 18.61094,2.96969 24.08,7.4175c5.46906,4.44781 9.07031,10.52156 11.825,16.985c2.75469,6.46344 4.60906,13.23594 6.88,18.92c1.14219,2.84875 2.37844,5.44219 4.085,7.6325c1.70656,2.19031 3.99094,4.07156 6.88,4.73c13.26281,3.01 19.0275,8.86875 22.145,16.4475c2.75469,6.67844 3.06375,15.06344 3.1175,23.435c-9.23156,-0.09406 -15.86969,1.075 -20.21,3.9775c-4.97187,3.31906 -6.92031,8.385 -8.0625,12.9c-1.14219,4.515 -1.81406,8.74781 -3.87,12.255c-2.05594,3.50719 -5.32125,6.53063 -12.9,8.815c-4.03125,1.20938 -6.94719,3.9775 -9.03,6.7725c-2.08281,2.795 -3.58781,5.75125 -5.375,8.385c-3.57437,5.2675 -7.40406,9.41969 -19.0275,9.5675c-7.28312,0.09406 -11.77125,-1.3975 -14.9425,-3.655c-3.17125,-2.2575 -5.28094,-5.49594 -7.095,-9.3525c-2.87562,-6.08719 -6.32906,-9.98406 -10.8575,-12.5775c-4.52844,-2.59344 -9.7825,-3.9775 -16.8775,-6.3425c-1.06156,-0.34937 -1.55875,-0.84656 -2.0425,-1.6125c-0.48375,-0.76594 -0.90031,-1.935 -1.1825,-3.5475c-0.57781,-3.21156 -0.59125,-7.8475 -1.3975,-12.685c-0.80625,-4.8375 -2.60687,-10.13187 -7.095,-14.19c-3.84312,-3.48031 -9.83625,-5.49594 -17.7375,-6.45c1.00781,-16.05781 9.98406,-27.03625 24.725,-32.25c5.81844,-2.05594 8.88219,-7.51156 11.18,-13.33c2.29781,-5.81844 4.01781,-12.52375 6.665,-18.8125c2.64719,-6.28875 6.06031,-12.09375 11.5025,-16.34c5.44219,-4.24625 13.04781,-7.095 24.6175,-7.095zM65.36,37.84c-3.80281,0 -6.88,4.6225 -6.88,10.32c0,5.6975 3.07719,10.32 6.88,10.32c3.80281,0 6.88,-4.6225 6.88,-10.32c0,-5.6975 -3.07719,-10.32 -6.88,-10.32zM92.88,37.84c-3.80281,0 -6.88,4.6225 -6.88,10.32c0,5.6975 3.07719,10.32 6.88,10.32c3.80281,0 6.88,-4.6225 6.88,-10.32c0,-5.6975 -3.07719,-10.32 -6.88,-10.32z"></path></g></g></svg>