<svg xmlns="http://www.w3.org/2000/svg" x="0px" y="0px"
width="96" height="96"
viewBox="0 0 48 48"
style=" fill:#222;"><path d="M19.913 20.291l-3.75-9.5C15.975 10.313 15.514 10 15.001 10c-.514 0-.975.313-1.163.791l-3.75 9.5c-.254.642.061 1.368.704 1.621.644.254 1.368-.062 1.621-.704l.378-.958h4.419l.378.958C17.782 21.7 18.252 22 18.751 22c.152 0 .308-.028.458-.088C19.852 21.659 20.167 20.933 19.913 20.291zM13.778 17.75l1.223-3.096 1.222 3.096H13.778zM31.75 35.5H28v-2.25h2.75c.69 0 1.25-.56 1.25-1.25 0-.69-.56-1.25-1.25-1.25H28V28.5h3.75c.69 0 1.25-.56 1.25-1.25S32.44 26 31.75 26h-5c-.69 0-1.25.56-1.25 1.25v9.5c0 .69.56 1.25 1.25 1.25h5c.69 0 1.25-.56 1.25-1.25S32.44 35.5 31.75 35.5zM23.25 35.5H19.5v-2.25h2.75c.69 0 1.25-.56 1.25-1.25 0-.69-.56-1.25-1.25-1.25H19.5V28.5h3.75c.69 0 1.25-.56 1.25-1.25S23.94 26 23.25 26h-5C17.56 26 17 26.56 17 27.25v9.5c0 .69.56 1.25 1.25 1.25h5c.69 0 1.25-.56 1.25-1.25S23.94 35.5 23.25 35.5zM7.75 10c-.69 0-1.25.56-1.25 1.25v3.5h-4v-3.5C2.5 10.56 1.94 10 1.25 10S0 10.56 0 11.25v9.5C0 21.44.56 22 1.25 22s1.25-.56 1.25-1.25v-3.5h4v3.5C6.5 21.44 7.06 22 7.75 22S9 21.44 9 20.75v-9.5C9 10.56 8.44 10 7.75 10zM27.25 22h-5C21.56 22 21 21.44 21 20.75v-9.5c0-.69.56-1.25 1.25-1.25.69 0 1.25.56 1.25 1.25v8.25h3.75c.69 0 1.25.56 1.25 1.25S27.94 22 27.25 22L27.25 22zM35.75 22h-5c-.69 0-1.25-.56-1.25-1.25v-9.5c0-.69.56-1.25 1.25-1.25.69 0 1.25.56 1.25 1.25v8.25h3.75c.69 0 1.25.56 1.25 1.25S36.44 22 35.75 22L35.75 22zM41.75 38c-.405 0-.794-.197-1.032-.544L36.5 31.291v5.459c0 .69-.56 1.25-1.25 1.25C34.56 38 34 37.44 34 36.75v-9.5c0-.548.357-1.032.88-1.194.524-.163 1.092.035 1.402.488l4.218 6.165V27.25c0-.69.56-1.25 1.25-1.25.69 0 1.25.56 1.25 1.25v9.5c0 .548-.357 1.032-.88 1.194C41.998 37.982 41.873 38 41.75 38L41.75 38zM42.25 22C39.355 22 37 19.309 37 16s2.355-6 5.25-6c2.895 0 5.25 2.691 5.25 6S45.145 22 42.25 22L42.25 22zM42.25 12.5c-1.517 0-2.75 1.57-2.75 3.5s1.233 3.5 2.75 3.5c1.517 0 2.75-1.57 2.75-3.5S43.767 12.5 42.25 12.5L42.25 12.5zM13.167 38c-.401 0-.785-.193-1.022-.531L10 34.422l-2.145 3.047c-.292.415-.807.611-1.299.5-.495-.113-.872-.513-.956-1.013l-1.583-9.5c-.114-.682.346-1.326 1.028-1.439.678-.11 1.325.347 1.438 1.027l1.082 6.494 1.413-2.007c.468-.666 1.576-.666 2.044 0l1.413 2.007 1.082-6.494c.114-.681.755-1.142 1.438-1.027.682.113 1.142.757 1.028 1.439l-1.583 9.5c-.084.5-.461.9-.956 1.013C13.353 37.99 13.259 38 13.167 38L13.167 38z"></path></svg>