<svg xmlns="http://www.w3.org/2000/svg" x="0px" y="0px"
width="100" height="100"
viewBox="0 0 172 172"
style=" fill:#000000;"><g fill="none" fill-rule="nonzero" stroke="none" stroke-width="1" stroke-linecap="butt" stroke-linejoin="miter" stroke-miterlimit="10" stroke-dasharray="" stroke-dashoffset="0" font-family="none" font-weight="none" font-size="none" text-anchor="none" style="mix-blend-mode: normal"><path d="M0,172v-172h172v172z" fill="none"></path><g fill="#ffffff"><path d="M80.625,8.0625c-1.09919,0 -2.08735,0.66894 -2.49854,1.69019l-5.375,13.4375c-0.13082,0.32738 -0.1784,0.66527 -0.17847,0.99731h-9.6687c-33.51044,0 -62.9043,32.65044 -62.9043,69.875c0,37.00956 31.98192,59.125 62.9043,59.125h46.19141c30.92237,0 62.9043,-22.11544 62.9043,-59.125c0,-37.22456 -29.39386,-69.875 -62.9043,-69.875h-9.6687c-0.00007,-0.33224 -0.04764,-0.66994 -0.17847,-0.99731l-5.375,-13.4375c-0.41119,-1.01856 -1.39935,-1.69019 -2.49854,-1.69019zM82.44641,13.4375h7.10718l4.29895,10.75h-15.71033zM72.5625,29.5625h2.54053c-6.10526,6.2587 -11.15852,17.92322 -12.43494,34.73279c-0.11288,1.48081 0.99673,2.76884 2.47754,2.88171c0.06987,0.00538 0.13752,0.0105 0.20471,0.0105c1.39213,0 2.5695,-1.07185 2.677,-2.48279c1.84363,-24.23856 11.61941,-35.14221 17.97266,-35.14221c8.9655,0 18.88229,13.21524 19.59985,37.70374c0.043,1.45663 1.23894,2.60876 2.6875,2.60876h0.07874c1.4835,-0.043 2.65176,-1.28274 2.60876,-2.76624c-0.53706,-18.34218 -5.97669,-30.94997 -12.94934,-37.54626h1.41199c17.25644,0 32.34305,20.80163 40.01855,38.61707c0.43806,1.01587 1.43223,1.6272 2.47229,1.6272c0.35475,0 0.71361,-0.07265 1.0603,-0.22046c1.36256,-0.58856 1.99261,-2.17003 1.40674,-3.53259c-5.63547,-13.07785 -15.15125,-27.61532 -26.86975,-35.65662c24.6778,4.73361 49.09936,29.55084 49.09936,63.6654c0,33.64481 -29.24873,53.75 -57.5293,53.75h-46.19141c-28.28056,0 -57.5293,-20.10519 -57.5293,-53.75c0,-34.03971 24.31423,-58.82273 48.93664,-63.63391c-11.95881,8.166 -21.90663,23.20526 -27.75159,38.17615c-0.54019,1.38137 0.14084,2.93992 1.52222,3.4801c0.31981,0.12631 0.65113,0.18896 0.97632,0.18896c1.075,0 2.09247,-0.64962 2.50903,-1.71118c7.96306,-20.40619 23.73037,-41.00012 40.99487,-41.00012zM42.7428,61.823c-0.26149,0.0249 -0.52032,0.09007 -0.77161,0.19421c-1.00244,0.41656 -1.65869,1.39704 -1.65869,2.48279v24.1875c0,1.48619 1.204,2.6875 2.6875,2.6875h24.1875c1.08575,0 2.06623,-0.65357 2.48279,-1.65869c0.41656,-1.00512 0.18598,-2.16033 -0.58264,-2.92895l-24.1875,-24.1875c-0.57848,-0.57647 -1.37289,-0.85156 -2.15735,-0.77686zM129.25195,61.823c-0.78584,-0.0747 -1.57563,0.20039 -2.1521,0.77686l-24.1875,24.1875c-0.76863,0.76863 -0.9992,1.92383 -0.58264,2.92895c0.41656,1.00513 1.39704,1.65869 2.48279,1.65869h24.1875c1.4835,0 2.6875,-1.20131 2.6875,-2.6875v-24.1875c0,-1.08575 -0.65626,-2.06623 -1.65869,-2.48279c-0.25262,-0.10414 -0.51491,-0.16931 -0.77685,-0.19421zM45.6875,70.98779l15.01221,15.01221h-15.01221zM126.3125,70.98779v15.01221h-15.01221zM25.14807,78.23145c-1.0286,0.19476 -1.89204,0.98816 -2.12585,2.07861c-1.0105,4.68969 -1.52222,9.31538 -1.52222,13.75244c0,1.48619 1.204,2.6875 2.6875,2.6875c1.4835,0 2.6875,-1.20131 2.6875,-2.6875c0,-4.05812 0.47161,-8.30509 1.40149,-12.6239c0.31175,-1.45125 -0.61162,-2.87966 -2.06287,-3.19141c-0.36214,-0.07861 -0.72269,-0.08067 -1.06555,-0.01575zM146.85193,78.23145c-0.34274,-0.06513 -0.70408,-0.06286 -1.06555,0.01575c-1.45125,0.31175 -2.37462,1.74016 -2.06287,3.19141c0.92988,4.31881 1.40149,8.56578 1.40149,12.6239c0,1.48619 1.204,2.6875 2.6875,2.6875c1.4835,0 2.6875,-1.20131 2.6875,-2.6875c0,-4.43706 -0.51172,-9.06276 -1.52222,-13.75244c-0.23381,-1.08844 -1.09763,-1.88322 -2.12586,-2.07861zM32.55444,99.45849c-1.12069,-0.14512 -2.17687,0.43873 -2.6875,1.42773c-0.51331,0.98631 -0.36638,2.18506 0.37268,3.01819c9.82012,11.08056 24.12581,22.40808 55.76038,22.40808c32.23925,0 46.29693,-11.34289 55.79187,-22.43957c0.72025,-0.8385 0.84937,-2.03482 0.33069,-3.00769c-0.51868,-0.97556 -1.58319,-1.54917 -2.677,-1.40674c-0.11288,0.01344 -11.42843,1.30331 -21.56299,2.69275c-0.4515,0.06181 -0.87852,0.23234 -1.24402,0.50915l-9.23303,6.92346l-6.47729,-4.31995c-0.46763,-0.31175 -1.03145,-0.50261 -1.59045,-0.44617c-2.29512,0.08062 -5.97604,0.04518 -9.22254,0.021c-3.08794,-0.02419 -5.32864,-0.02431 -8.31445,0.00525c-3.18738,0.02419 -6.79774,0.05975 -9.13855,-0.02625c-0.55631,-0.03494 -1.12539,0.13442 -1.5957,0.44617l-6.47729,4.31995l-9.22778,-6.92346c-0.3655,-0.27412 -0.79777,-0.44734 -1.24927,-0.50915c-10.13456,-1.38944 -21.44487,-2.67931 -21.55774,-2.69275zM132.69006,105.66809c-8.73169,8.18881 -21.88175,15.26941 -46.69006,15.26941c-24.42131,0 -37.40828,-6.82029 -46.54309,-15.25366c3.82162,0.46494 8.6236,1.06656 13.23804,1.69543l10.18836,7.64783c0.91375,0.68531 2.15873,0.71823 3.10742,0.08398l7.34338,-4.89734c2.41606,0.05644 5.6356,0.02956 8.51392,0c2.94819,-0.02956 5.16953,-0.02956 8.22522,0c2.924,0.0215 6.2009,0.05644 8.5874,0l7.34863,4.89734c0.95137,0.63694 2.1938,0.60133 3.10217,-0.08398l10.1936,-7.64783c4.67356,-0.63962 9.5392,-1.24356 13.38501,-1.71118zM45.6875,131.6875c-1.4835,0 -2.6875,1.20131 -2.6875,2.6875v5.375c0,1.48619 1.204,2.6875 2.6875,2.6875c1.4835,0 2.6875,-1.20131 2.6875,-2.6875v-5.375c0,-1.48619 -1.204,-2.6875 -2.6875,-2.6875zM59.125,131.6875c-1.4835,0 -2.6875,1.20131 -2.6875,2.6875v5.375c0,1.48619 1.204,2.6875 2.6875,2.6875c1.4835,0 2.6875,-1.20131 2.6875,-2.6875v-5.375c0,-1.48619 -1.204,-2.6875 -2.6875,-2.6875zM72.5625,131.6875c-1.4835,0 -2.6875,1.20131 -2.6875,2.6875v5.375c0,1.48619 1.204,2.6875 2.6875,2.6875c1.4835,0 2.6875,-1.20131 2.6875,-2.6875v-5.375c0,-1.48619 -1.204,-2.6875 -2.6875,-2.6875zM86,131.6875c-1.4835,0 -2.6875,1.20131 -2.6875,2.6875v5.375c0,1.48619 1.204,2.6875 2.6875,2.6875c1.4835,0 2.6875,-1.20131 2.6875,-2.6875v-5.375c0,-1.48619 -1.204,-2.6875 -2.6875,-2.6875zM99.4375,131.6875c-1.4835,0 -2.6875,1.20131 -2.6875,2.6875v5.375c0,1.48619 1.204,2.6875 2.6875,2.6875c1.4835,0 2.6875,-1.20131 2.6875,-2.6875v-5.375c0,-1.48619 -1.204,-2.6875 -2.6875,-2.6875zM112.875,131.6875c-1.4835,0 -2.6875,1.20131 -2.6875,2.6875v5.375c0,1.48619 1.204,2.6875 2.6875,2.6875c1.4835,0 2.6875,-1.20131 2.6875,-2.6875v-5.375c0,-1.48619 -1.204,-2.6875 -2.6875,-2.6875zM126.3125,131.6875c-1.4835,0 -2.6875,1.20131 -2.6875,2.6875v5.375c0,1.48619 1.204,2.6875 2.6875,2.6875c1.4835,0 2.6875,-1.20131 2.6875,-2.6875v-5.375c0,-1.48619 -1.204,-2.6875 -2.6875,-2.6875z"></path></g></g></svg>