<svg xmlns="http://www.w3.org/2000/svg" x="0px" y="0px"
width="100" height="100"
viewBox="0 0 172 172"
style=" fill:#fff;"><g fill="none" fill-rule="nonzero" stroke="none" stroke-width="1" stroke-linecap="butt" stroke-linejoin="miter" stroke-miterlimit="10" stroke-dasharray="" stroke-dashoffset="0" font-family="none" font-weight="none" font-size="none" text-anchor="none" style="mix-blend-mode: normal"><path d="M0,172v-172h172v172z" fill="none"></path><g fill="#ffffff"><path d="M86,12.9c-37.84088,0 -68.8,27.311 -68.8,61.275c0,12.07846 3.99474,23.31918 10.75,32.7875v2.6875c0,13.03633 10.61367,23.65 23.65,23.65h6.45v18.275l0.86084,0.64668c0,0 2.46269,1.81952 6.9833,3.51475c4.52061,1.69523 11.23711,3.36357 20.10586,3.36357c8.86875,0 15.58524,-1.66834 20.10586,-3.36357c4.52062,-1.69523 6.9833,-3.51475 6.9833,-3.51475l0.86084,-0.64668v-18.275h6.45c13.03633,0 23.65,-10.61367 23.65,-23.65v-2.6875c6.75526,-9.46832 10.75,-20.70904 10.75,-32.7875c0,-33.964 -30.95912,-61.275 -68.8,-61.275zM86,17.2c16.5989,0 31.67383,5.52306 43.07139,14.56709l-3.72891,10.35527l-5.25742,-5.25742l-1.39834,-1.39834l-0.39473,1.86445l-3.26699,15.34395l4.73252,-13.09736l5.25742,5.25742l0.92803,0.92803l0.79365,-1.20518l6.20224,-9.43984c10.89296,10.21858 17.56113,23.96943 17.56113,39.05693c0,10.65296 -3.34605,20.58539 -9.1249,29.12998c-0.92591,0.2396 -1.6251,1.04455 -1.6251,2.04502c0,0.08485 0.03661,0.15706 0.04619,0.23936l-0.04619,0.06299v3.99766c0,10.71257 -8.63743,19.35 -19.35,19.35h-6.45c0,-1.1868 -0.9632,-2.15 -2.15,-2.15c-1.1868,0 -2.15,0.9632 -2.15,2.15v20.20664c-0.44248,0.31061 -1.53187,1.13113 -4.64853,2.33896c-0.3787,-0.61389 -1.0277,-1.04561 -1.80147,-1.04561c-1.1868,0 -2.15,0.9632 -2.15,2.15c0,0.0731 0.03486,0.13453 0.04199,0.20576c-1.36819,0.38346 -2.89228,0.7321 -4.56035,1.03301c-0.34509,-0.72665 -1.07418,-1.23877 -1.93164,-1.23877c-1.06296,0 -1.90579,0.78751 -2.07861,1.80147c-1.37937,0.14573 -2.83992,0.24716 -4.37978,0.29814c-0.02825,-1.16227 -0.97257,-2.09961 -2.1416,-2.09961c-1.16903,0 -2.11335,0.93734 -2.1416,2.09961c-1.53986,-0.05098 -3.00042,-0.15242 -4.37978,-0.29814c-0.17283,-1.01395 -1.01565,-1.80147 -2.07861,-1.80147c-0.85746,0 -1.58656,0.51212 -1.93164,1.23877c-1.66807,-0.30091 -3.19216,-0.64955 -4.56035,-1.03301c0.00714,-0.07123 0.04199,-0.13266 0.04199,-0.20576c0,-1.1868 -0.9632,-2.15 -2.15,-2.15c-0.77377,0 -1.42276,0.43172 -1.80147,1.04561c-3.11666,-1.20783 -4.20605,-2.02836 -4.64853,-2.33896v-20.20664c0,-1.1868 -0.9632,-2.15 -2.15,-2.15c-1.1868,0 -2.15,0.9632 -2.15,2.15h-6.45c-10.71257,0 -19.35,-8.63743 -19.35,-19.35v-3.99766l-0.04619,-0.06299c0.00958,-0.0823 0.04619,-0.1545 0.04619,-0.23936c0,-1.00047 -0.69919,-1.80542 -1.6251,-2.04502c-5.77886,-8.54459 -9.1249,-18.47702 -9.1249,-29.12998c0,-19.29877 10.89898,-36.41926 27.61826,-46.7373l4.68213,16.02842l0.81885,2.80928l2.38936,-1.43193l7.49141,-4.49736v13.40391v2.98145l2.83027,-0.94062l4.73252,-1.57891l5.33721,10.28809l-2.25918,-13.58027l-0.36113,-2.1458l-2.35996,0.78525l-3.61973,1.20518v-14.21436v-3.79609l-3.25859,1.95264l-8.00791,4.80811l-2.37676,-15.39853c9.14851,-4.4073 19.64972,-6.91611 30.84326,-6.91611zM38.7,77.4c-1.1868,0 -2.15,0.9632 -2.15,2.15c0,1.1868 0.9632,2.15 2.15,2.15c1.1868,0 2.15,-0.9632 2.15,-2.15c0,-1.1868 -0.9632,-2.15 -2.15,-2.15zM133.3,77.4c-1.1868,0 -2.15,0.9632 -2.15,2.15c0,1.1868 0.9632,2.15 2.15,2.15c1.1868,0 2.15,-0.9632 2.15,-2.15c0,-1.1868 -0.9632,-2.15 -2.15,-2.15zM60.43096,79.14268c-4.36329,0.11632 -8.5248,1.88743 -11.86699,4.42178c-4.45626,3.37912 -7.67923,8.14883 -7.88613,13.09736c-0.30241,7.2326 5.83413,13.35807 12.76563,17.14541c3.46575,1.89367 7.22031,3.21484 10.81299,3.68271c3.59268,0.46787 7.11026,0.10922 9.87656,-1.75947c3.56081,-2.40483 4.76184,-6.53259 5.20283,-9.97314c0.44073,-3.43853 0.10722,-6.42146 0.02519,-7.10928c-0.40085,-3.37755 -1.6091,-7.42127 -3.91367,-11.03555c-2.30457,-3.61428 -5.79748,-6.82341 -10.60723,-7.99951c-1.47603,-0.36126 -2.95475,-0.50908 -4.40918,-0.47031zM111.39688,79.14268c-1.45456,-0.03876 -2.93293,0.10907 -4.40918,0.47031c-4.80975,1.1761 -8.30266,4.38523 -10.60723,7.99951c-2.30372,3.61295 -3.51238,7.65455 -3.91367,11.03135c-0.08179,0.68551 -0.4158,3.67292 0.0252,7.11348c0.44099,3.44056 1.64203,7.56832 5.20283,9.97314c2.7663,1.86869 6.28389,2.22735 9.87656,1.75947c3.59268,-0.46787 7.34724,-1.78904 10.81299,-3.68271c6.9315,-3.78734 13.06803,-9.91281 12.76563,-17.14541c-0.20689,-4.94834 -3.4301,-9.71818 -7.88613,-13.09736c-3.34202,-2.53439 -7.50331,-4.30545 -11.86699,-4.42178zM60.52334,83.45107c1.10442,-0.03442 2.20757,0.07047 3.29219,0.33594c3.5344,0.86425 6.13019,3.19442 8.00791,6.13926c1.87772,2.94483 2.94534,6.48003 3.27119,9.22568v0.0042c0.06441,0.53999 0.33953,3.20977 -0.02519,6.05527c-0.36472,2.8455 -1.38424,5.63268 -3.34678,6.95811c-1.52402,1.02951 -3.97561,1.43585 -6.90772,1.054c-2.9321,-0.38185 -6.26172,-1.52602 -9.30967,-3.19141c-6.09589,-3.33077 -10.71523,-8.70259 -10.52744,-13.19394c0.12848,-3.07312 2.5362,-7.07999 6.18545,-9.84717c2.73693,-2.07539 6.04681,-3.4367 9.36006,-3.53994zM111.30869,83.45107c3.31469,0.10325 6.62336,1.4646 9.36006,3.53994c3.64893,2.76713 6.05275,6.77386 6.18125,9.84717c0.18778,4.49135 -4.43155,9.86317 -10.52744,13.19394c-3.04795,1.66539 -6.37757,2.80956 -9.30967,3.19141c-2.93211,0.38185 -5.38369,-0.02449 -6.90772,-1.054c-1.96254,-1.32542 -2.98206,-4.1126 -3.34678,-6.95811c-0.36472,-2.84551 -0.08961,-5.51528 -0.02519,-6.05527v-0.0042c0.32585,-2.74565 1.39348,-6.28085 3.27119,-9.22568c1.87772,-2.94484 4.4735,-5.27501 8.00791,-6.13926c1.08494,-0.26548 2.19149,-0.37035 3.29639,-0.33594zM34.4,86c-1.1868,0 -2.15,0.9632 -2.15,2.15c0,1.1868 0.9632,2.15 2.15,2.15c1.1868,0 2.15,-0.9632 2.15,-2.15c0,-1.1868 -0.9632,-2.15 -2.15,-2.15zM137.6,86c-1.1868,0 -2.15,0.9632 -2.15,2.15c0,1.1868 0.9632,2.15 2.15,2.15c1.1868,0 2.15,-0.9632 2.15,-2.15c0,-1.1868 -0.9632,-2.15 -2.15,-2.15zM32.25,94.6c-1.1868,0 -2.15,0.9632 -2.15,2.15c0,1.1868 0.9632,2.15 2.15,2.15c1.1868,0 2.15,-0.9632 2.15,-2.15c0,-1.1868 -0.9632,-2.15 -2.15,-2.15zM139.75,94.6c-1.1868,0 -2.15,0.9632 -2.15,2.15c0,1.1868 0.9632,2.15 2.15,2.15c1.1868,0 2.15,-0.9632 2.15,-2.15c0,-1.1868 -0.9632,-2.15 -2.15,-2.15zM86,116.1c0,0 -8.6,8.6 -8.6,12.9c0,2.3736 1.9264,4.3 4.3,4.3c2.3736,0 4.3,-1.9264 4.3,-4.3c0,2.3736 1.9264,4.3 4.3,4.3c2.3736,0 4.3,-1.9264 4.3,-4.3c0,-4.3 -8.6,-12.9 -8.6,-12.9zM68.8,141.9c-1.1868,0 -2.15,0.9632 -2.15,2.15c0,1.1868 0.9632,2.15 2.15,2.15c1.1868,0 2.15,-0.9632 2.15,-2.15c0,-1.1868 -0.9632,-2.15 -2.15,-2.15zM103.2,141.9c-1.1868,0 -2.15,0.9632 -2.15,2.15c0,1.1868 0.9632,2.15 2.15,2.15c1.1868,0 2.15,-0.9632 2.15,-2.15c0,-1.1868 -0.9632,-2.15 -2.15,-2.15zM77.4,144.05c-1.1868,0 -2.15,0.9632 -2.15,2.15c0,1.1868 0.9632,2.15 2.15,2.15c1.1868,0 2.15,-0.9632 2.15,-2.15c0,-1.1868 -0.9632,-2.15 -2.15,-2.15zM86,144.05c-1.1868,0 -2.15,0.9632 -2.15,2.15c0,1.1868 0.9632,2.15 2.15,2.15c1.1868,0 2.15,-0.9632 2.15,-2.15c0,-1.1868 -0.9632,-2.15 -2.15,-2.15zM94.6,144.05c-1.1868,0 -2.15,0.9632 -2.15,2.15c0,1.1868 0.9632,2.15 2.15,2.15c1.1868,0 2.15,-0.9632 2.15,-2.15c0,-1.1868 -0.9632,-2.15 -2.15,-2.15z"></path></g></g></svg>