<svg xmlns="http://www.w3.org/2000/svg" x="0px" y="0px"
width="100" height="100"
viewBox="0 0 172 172"
style=" fill:#000000;"><g fill="none" fill-rule="nonzero" stroke="none" stroke-width="1" stroke-linecap="butt" stroke-linejoin="miter" stroke-miterlimit="10" stroke-dasharray="" stroke-dashoffset="0" font-family="none" font-weight="none" font-size="none" text-anchor="none" style="mix-blend-mode: normal"><path d="M0,172v-172h172v172z" fill="none"></path><g fill="#ffffff"><path d="M163.25588,82.64197h-23.51428v-23.88381c0,-1.18116 -0.62014,-2.27497 -1.63064,-2.88201l-10.78091,-6.45873l15.67249,-15.67115c1.31217,-1.31251 1.31217,-3.43832 0,-4.75116c-1.31184,-1.31049 -3.43832,-1.31049 -4.75116,0l-16.86373,16.86406l-32.03164,-19.19177v-17.92495c0,-1.85404 -1.50332,-3.35803 -3.35635,-3.35803c-1.85673,0 -3.35971,1.50433 -3.35971,3.35803v17.86314l-32.8389,18.44532l-16.0568,-16.05546c-1.31217,-1.31049 -3.43832,-1.31049 -4.75083,0c-1.30915,1.31251 -1.30915,3.43832 0,4.75116l14.72112,14.72145l-13.10391,7.36073c-1.05955,0.59528 -1.71563,1.71429 -1.71563,2.92971v23.88381h-20.1539c-1.85404,0 -3.35669,1.50265 -3.35669,3.35803c0,1.85505 1.50298,3.35938 3.35669,3.35938h20.15457v26.64186c0,1.24666 0.69237,2.3912 1.79491,2.97237l11.52232,6.06334l-13.2188,13.2178c-1.30915,1.31217 -1.30915,3.43798 0,4.75083c1.31217,1.31184 3.43832,1.31184 4.75083,0l14.69189,-14.69189l34.20348,18.00088v16.94402c0,1.85538 1.50298,3.35803 3.35971,3.35803c1.8537,0 3.35635,-1.50265 3.35635,-3.35803v-16.92285l34.50213,-17.72541l14.39358,14.39526c1.31217,1.31184 3.43866,1.31184 4.75116,0c1.31251,-1.31217 1.31217,-3.43798 0,-4.75083l-12.86809,-12.86809l7.78233,-3.99967c1.12203,-0.57546 1.82414,-1.72873 1.82414,-2.98749v-29.04045h23.51428c1.85471,0 3.36005,-1.50399 3.36005,-3.35937c0,-1.85538 -1.50601,-3.35803 -3.36005,-3.35803zM133.0252,60.66158v21.98073h-11.59152v-13.59942c0,-1.18116 -0.62014,-2.2753 -1.63333,-2.88234l-5.76133,-3.45008l8.39575,-8.39407zM111.72542,106.97829l-6.82692,-6.82961c0.78072,-0.62988 1.25305,-1.58126 1.25305,-2.6062v-8.1831h8.56271v16.08368zM54.30295,89.35938h10.48562v7.38391c0,1.24868 0.69237,2.39154 1.79491,2.97237l0.62316,0.32821l-6.98851,6.98851l-5.91519,-3.11347zM99.43548,79.43645v3.20552h-5.3283l4.085,-4.08466zM71.50799,94.7159v-5.35652h6.38147l-5.70892,5.71094zM73.45677,78.20961l4.4327,4.43236h-6.38147v-3.14001zM82.64029,77.89114l-3.46788,-3.46956l3.46788,-2.29815zM82.64029,94.11054v6.46344l-4.2355,-2.22962zM89.35635,94.11054l4.33393,4.33225l-4.33393,2.22491zM94.10718,89.35938h5.3283v5.32696zM89.35635,77.89114v-5.57891l3.268,2.31159zM89.35635,64.08512v-8.33226l13.84533,8.2943l-5.75763,5.75629zM82.64029,64.06395l-8.31714,5.51005l-6.2827,-6.2827l14.59984,-8.19923zM68.6112,73.3617l-2.31965,1.53557c-0.93861,0.62316 -1.50298,1.67465 -1.50298,2.80004v4.94466h-10.48562v-11.63419l7.65434,-4.3zM73.43056,103.31993l9.20973,4.84623v10.66602l-16.1979,-8.52374zM89.35635,108.22059l9.32462,-4.78912l6.76847,6.77048l-16.09309,8.26776zM106.15155,82.64197v-4.94466c0,-1.09079 -0.52809,-2.11271 -1.41766,-2.74259l-1.72302,-1.21744l6.1322,-6.13019l5.57119,3.33855v11.69634h-8.56271zM116.49305,50.75613l-8.39541,8.39407l-18.74061,-11.22737v-13.42373zM82.64029,34.31064v13.07603l-19.53141,10.97138l-8.37627,-8.37291zM35.61475,60.72373l13.03538,-7.32142l8.37291,8.37291l-7.7232,4.33897c-1.05955,0.59394 -1.71563,1.71462 -1.71563,2.92837v13.59942h-11.96912l-0.00034,-21.91824zM35.61475,113.97352v-24.61414h11.96912v16.58691c0,1.24868 0.69237,2.39221 1.79458,2.97305l5.86648,3.08693l-8.0578,8.05645zM53.4107,123.33878l8.0578,-8.05645l21.17145,11.1417v12.29699zM89.35635,138.78216v-12.75958l21.0831,-10.83063l8.42867,8.42968zM133.0252,116.34859l-7.88076,4.04704l-8.42901,-8.42867l2.8941,-1.48619c1.11867,-0.57613 1.82414,-1.72873 1.82414,-2.98749v-18.13391h11.59152z"></path></g></g></svg>