<svg xmlns="http://www.w3.org/2000/svg" x="0px" y="0px"
width="100" height="100"
viewBox="0 0 172 172"
style=" fill:#fff;"><g fill="none" fill-rule="nonzero" stroke="none" stroke-width="1" stroke-linecap="butt" stroke-linejoin="miter" stroke-miterlimit="10" stroke-dasharray="" stroke-dashoffset="0" font-family="none" font-weight="none" font-size="none" text-anchor="none" style="mix-blend-mode: normal"><path d="M0,172v-172h172v172z" fill="none"></path><g fill="#ffffff"><path d="M103.2,13.76c-34.01031,0 -53.87094,50.72656 -64.90312,98.3625c-16.29969,4.515 -27.97688,11.35469 -27.97688,20.3175c0,16.85063 38.87469,25.8 75.68,25.8c36.80531,0 75.68,-8.94937 75.68,-25.8c0,-9.27187 -11.94594,-16.125 -28.81,-20.37125c-9.98406,-35.43469 -24.51,-67.03969 -24.51,-67.34875l-0.68531,-1.38406c-0.34937,-1.02125 -0.34937,-3.09062 0.34938,-4.11187c0.33594,-0.34938 0.68531,-1.38406 2.05594,-1.38406c6.53063,0 6.88,11.00531 6.88,14.09594c0,3.78938 3.09063,6.54406 6.88,6.54406c2.75469,0 5.16,-1.37062 6.19469,-3.44c5.16,-8.94937 5.16,-21.32531 1.02125,-28.20531c-3.44,-5.84531 -11.00531,-13.07469 -27.85594,-13.07469zM103.2,20.64c10.66938,0 18.23469,3.44 22.02406,9.63469c3.77594,6.88 2.05594,15.48 -1.04813,21.32531c0,-12.72531 -5.16,-20.64 -13.76,-20.64c-3.09062,0 -5.83187,1.37063 -7.55187,3.77594c-2.41875,3.44 -2.06938,7.91469 -1.04813,10.66938c0.34938,1.03469 0.69875,1.72 1.04813,2.06937c0.63156,1.59906 14.59312,32.69344 24.30844,67.45625c-8.47906,2.60688 -21.68812,5.46906 -41.1725,5.46906c-19.17531,0 -32.68,-2.70094 -41.25312,-5.46906c13.78687,-60.97937 34.37312,-94.29094 58.45312,-94.29094zM36.45594,119.755c-0.7525,3.81625 -1.54531,7.71313 -2.05594,10.27969l-0.34937,2.40531c0,0 15.48,8.6 51.94937,8.6c35.77063,0 52.28531,-8.6 52.28531,-8.6l-0.68531,-2.75469c-0.76594,-3.07719 -1.58562,-6.42313 -2.51281,-9.87656c12.59094,3.69531 19.71281,8.57313 19.71281,12.63125c0,7.91469 -26.14937,18.92 -68.8,18.92c-42.65062,0 -68.8,-11.00531 -68.8,-18.92c0,-4.07156 6.89344,-8.97625 19.25594,-12.685zM43.33594,121.78406c8.94938,2.74125 23.05875,5.49594 42.66406,5.49594c19.60531,0 33.36531,-2.75469 42.31469,-5.49594c0.68531,2.05594 1.37063,4.46125 1.72,6.53062c-9.28531,2.75469 -23.74406,5.84531 -44.03469,5.84531c-20.29062,0 -34.74937,-3.09062 -44.03469,-5.84531c0.34937,-2.06937 0.68531,-4.12531 1.37062,-6.53062z"></path></g></g></svg>